<?xml version="1.0" encoding="iso-8859-1"?>
<!-- Generator: Adobe Illustrator 19.0.0, SVG Export Plug-In . SVG Version: 6.00 Build 0)  -->
<svg version="1.1" id="Layer_1" xmlns="http://www.w3.org/2000/svg" xmlns:xlink="http://www.w3.org/1999/xlink" x="0px" y="0px"
	 viewBox="0 0 512 512" style="enable-background:new 0 0 512 512;" xml:space="preserve">
<circle style="fill:#88C5CC;" cx="256" cy="256" r="256"/>
<path style="fill:#99602E;" d="M260,511.9c22.132-0.34,43.572-3.484,64-9.096V280h-64V511.9z"/>
<path style="fill:#CC584C;" d="M376,96H168c-50.812,0-92,41.192-92,92v92h392v-92C468,137.192,426.812,96,376,96z"/>
<path style="fill:#B34D43;" d="M260,280v-92c0-50.808-41.188-92-92-92s-92,41.192-92,92v92H260z"/>
<path style="fill:#A6473E;" d="M168,96c-2.696,0-5.36,0.14-8,0.368c47.06,4.06,84,43.524,84,91.632v92h16v-92
	C260,137.192,218.812,96,168,96z"/>
<path style="fill:#D95D51;" d="M236.748,380.176c-13.34,49.028-63.9,77.96-112.924,64.62C74.796,431.456,46.664,397.028,60,348
	l16-68h184L236.748,380.176z"/>
<g>
	<circle style="fill:#FFD464;" cx="308" cy="196" r="16"/>
	<rect x="300" y="120" style="fill:#FFD464;" width="16" height="80"/>
	<path style="fill:#FFD464;" d="M328,120c8.8,0,16,7.2,16,16l0,0c0,8.8-7.2,16-16,16h-12c-8.8,0-16-7.2-16-16l0,0
		c0-8.8,7.2-16,16-16H328z"/>
</g>
<path style="fill:#F5F5F5;" d="M116,176v76c0,8.8,7.2,16,16,16h128v-80c0-9.764-1.536-19.168-4.352-28H132
	C123.2,160,116,167.2,116,176z"/>
<path style="fill:#E6E6E6;" d="M259.752,181.488c-0.032-0.468-0.072-0.932-0.108-1.396c-0.188-2.164-0.42-4.312-0.756-6.428
	c0-0.02-0.008-0.04-0.012-0.064c-0.344-2.168-0.776-4.304-1.264-6.42c-0.06-0.252-0.116-0.52-0.18-0.772
	c-0.52-2.16-1.108-4.3-1.78-6.408h-16.068c2.824,8.836,4.416,18.224,4.416,28v80h16v-80C260,185.808,259.9,183.64,259.752,181.488z"
	/>
<g>
	<rect x="140" y="172" style="fill:#CCCCCC;" width="44" height="8"/>
	<rect x="140" y="188" style="fill:#CCCCCC;" width="56" height="8"/>
	<rect x="140" y="204" style="fill:#CCCCCC;" width="28" height="8"/>
	<path style="fill:#CCCCCC;" d="M204,248c0,4.4-3.6,8-8,8h-48c-4.4,0-8-3.6-8-8v-20c0-4.4,3.6-8,8-8h48c4.4,0,8,3.6,8,8V248z"/>
</g>
<rect x="260" y="280" style="fill:#8C582A;" width="64" height="16"/>
<g>
</g>
<g>
</g>
<g>
</g>
<g>
</g>
<g>
</g>
<g>
</g>
<g>
</g>
<g>
</g>
<g>
</g>
<g>
</g>
<g>
</g>
<g>
</g>
<g>
</g>
<g>
</g>
<g>
</g>
</svg>
